/* XPM */
static char * apple_xpm[] = {
"8 8 6 1",
" 	c #FFFFFFFFFFFF",
".	c #333333333333",
"X	c #CDCD00000000",
"o	c #EEEE00000000",
"O	c #FFFF30303030",
"+	c #FFFF00000000",
"    ..  ",
"   ..   ",
" XXXXX  ",
"XoXXXoX ",
"XoXOOoX ",
"XoXOooX ",
"Xo+oooX ",
" XXXXX  "};
