/* XPM */
static char * apple_xpm[] = {
"8 8 6 1",
" 	c #00008B8B0000",
".	c #FFFFFFFFFFFF",
"X	c #8B8B5A5A0000",
"o	c #0000CDCD0000",
"O	c #EEEE00000000",
"+	c #CCCCCCCCCCCC",
"  ...XX.",
".  .XX..",
".o  X...",
".OOOOO..",
"OO++OOO.",
"OO+OOOO.",
"OOOOOOO.",
".OOOOO.."};
