/* XPM */
static char * grass_xpm[] = {
"8 8 5 1",
" 	c #FFFFFFFFFFFF",
".	c #00008B8B0000",
"X	c #0000CDCD0000",
"o	c #0000EEEE0000",
"O	c #0000FFFF0000",
" . X    ",
"     . .",
"   .    ",
".     o ",
"  X     ",
"     O. ",
" . .    ",
"     X  "};
