/* XPM */
static char * obstacle_xpm[] = {
"8 8 6 1",
" 	c #FFFFFFFFFFFF",
".	c #00008B8B0000",
"X	c #333333333333",
"o	c #999999999999",
"O	c #666666666666",
"+	c #CCCCCCCCCCCC",
" .      ",
"   XX . ",
" XXooX  ",
"XoOo+oX ",
"Xo++ooX ",
"XOooo+X ",
" Xo+oOX ",
"  XXXX  "};
