/* XPM */
static char * obstacle_xpm[] = {
"8 8 6 1",
" 	c #0000FFFFFFFF",
".	c #FFFFFFFFFFFF",
"X	c #00008B8B0000",
"o	c #0000CDCD0000",
"O	c #333333333333",
"+	c #999999999999",
" ..X...o",
"..OOO...",
".O+++O.X",
".++O++..",
".+OOO+..",
".++O++..",
".++O++X.",
".OOOOO.."};
